<svg width="82" height="115" viewBox="0 0 82 115" fill="none" xmlns="http://www.w3.org/2000/svg">
<g opacity="0.3">
<mask id="mask0" mask-type="alpha" maskUnits="userSpaceOnUse" x="10" y="0" width="12" height="11">
<path d="M15.7904 10.425C18.678 10.425 21.0188 8.09121 21.0188 5.21245C21.0188 2.33368 18.678 0 15.7904 0C12.9028 0 10.562 2.33368 10.562 5.21245C10.562 8.09121 12.9028 10.425 15.7904 10.425Z" fill="url(#paint0_linear)"/>
</mask>
<g mask="url(#mask0)">
<path d="M15.7904 10.425C18.678 10.425 21.0188 8.09121 21.0188 5.21245C21.0188 2.33368 18.678 0 15.7904 0C12.9028 0 10.562 2.33368 10.562 5.21245C10.562 8.09121 12.9028 10.425 15.7904 10.425Z" fill="url(#paint1_linear)"/>
</g>
<mask id="mask1" mask-type="alpha" maskUnits="userSpaceOnUse" x="40" y="0" width="12" height="11">
<path d="M46.0717 10.425C48.9592 10.425 51.3 8.09121 51.3 5.21245C51.3 2.33368 48.9592 0 46.0717 0C43.1841 0 40.8433 2.33368 40.8433 5.21245C40.8433 8.09121 43.1841 10.425 46.0717 10.425Z" fill="url(#paint2_linear)"/>
</mask>
<g mask="url(#mask1)">
<path d="M46.0717 10.425C48.9592 10.425 51.3 8.09121 51.3 5.21245C51.3 2.33368 48.9592 0 46.0717 0C43.1841 0 40.8433 2.33368 40.8433 5.21245C40.8433 8.09121 43.1841 10.425 46.0717 10.425Z" fill="url(#paint3_linear)"/>
</g>
<mask id="mask2" mask-type="alpha" maskUnits="userSpaceOnUse" x="71" y="0" width="11" height="11">
<path d="M76.3524 10.425C79.24 10.425 81.5808 8.09121 81.5808 5.21245C81.5808 2.33368 79.24 0 76.3524 0C73.4648 0 71.124 2.33368 71.124 5.21245C71.124 8.09121 73.4648 10.425 76.3524 10.425Z" fill="url(#paint4_linear)"/>
</mask>
<g mask="url(#mask2)">
<path d="M76.3524 10.425C79.24 10.425 81.5808 8.09121 81.5808 5.21245C81.5808 2.33368 79.24 0 76.3524 0C73.4648 0 71.124 2.33368 71.124 5.21245C71.124 8.09121 73.4648 10.425 76.3524 10.425Z" fill="url(#paint5_linear)"/>
</g>
<mask id="mask3" mask-type="alpha" maskUnits="userSpaceOnUse" x="10" y="26" width="12" height="11">
<path d="M15.7904 36.5958C18.678 36.5958 21.0188 34.2621 21.0188 31.3834C21.0188 28.5046 18.678 26.171 15.7904 26.171C12.9028 26.171 10.562 28.5046 10.562 31.3834C10.562 34.2621 12.9028 36.5958 15.7904 36.5958Z" fill="url(#paint6_linear)"/>
</mask>
<g mask="url(#mask3)">
<path d="M15.7904 36.5958C18.678 36.5958 21.0188 34.2621 21.0188 31.3834C21.0188 28.5046 18.678 26.171 15.7904 26.171C12.9028 26.171 10.562 28.5046 10.562 31.3834C10.562 34.2621 12.9028 36.5958 15.7904 36.5958Z" fill="url(#paint7_linear)"/>
</g>
<mask id="mask4" mask-type="alpha" maskUnits="userSpaceOnUse" x="40" y="26" width="12" height="11">
<path d="M46.0717 36.5958C48.9592 36.5958 51.3 34.2621 51.3 31.3834C51.3 28.5046 48.9592 26.171 46.0717 26.171C43.1841 26.171 40.8433 28.5046 40.8433 31.3834C40.8433 34.2621 43.1841 36.5958 46.0717 36.5958Z" fill="url(#paint8_linear)"/>
</mask>
<g mask="url(#mask4)">
<path d="M46.0717 36.5958C48.9592 36.5958 51.3 34.2621 51.3 31.3834C51.3 28.5046 48.9592 26.171 46.0717 26.171C43.1841 26.171 40.8433 28.5046 40.8433 31.3834C40.8433 34.2621 43.1841 36.5958 46.0717 36.5958Z" fill="url(#paint9_linear)"/>
</g>
<mask id="mask5" mask-type="alpha" maskUnits="userSpaceOnUse" x="71" y="26" width="11" height="11">
<path d="M76.3524 36.5958C79.24 36.5958 81.5808 34.2621 81.5808 31.3834C81.5808 28.5046 79.24 26.171 76.3524 26.171C73.4648 26.171 71.124 28.5046 71.124 31.3834C71.124 34.2621 73.4648 36.5958 76.3524 36.5958Z" fill="url(#paint10_linear)"/>
</mask>
<g mask="url(#mask5)">
<path d="M76.3524 36.5958C79.24 36.5958 81.5808 34.2621 81.5808 31.3834C81.5808 28.5046 79.24 26.171 76.3524 26.171C73.4648 26.171 71.124 28.5046 71.124 31.3834C71.124 34.2621 73.4648 36.5958 76.3524 36.5958Z" fill="url(#paint11_linear)"/>
</g>
<mask id="mask6" mask-type="alpha" maskUnits="userSpaceOnUse" x="10" y="52" width="12" height="11">
<path d="M15.7904 62.7125C18.678 62.7125 21.0188 60.3788 21.0188 57.5C21.0188 54.6212 18.678 52.2875 15.7904 52.2875C12.9028 52.2875 10.562 54.6212 10.562 57.5C10.562 60.3788 12.9028 62.7125 15.7904 62.7125Z" fill="url(#paint12_linear)"/>
</mask>
<g mask="url(#mask6)">
<path d="M15.7904 62.7125C18.678 62.7125 21.0188 60.3788 21.0188 57.5C21.0188 54.6212 18.678 52.2875 15.7904 52.2875C12.9028 52.2875 10.562 54.6212 10.562 57.5C10.562 60.3788 12.9028 62.7125 15.7904 62.7125Z" fill="url(#paint13_linear)"/>
</g>
<mask id="mask7" mask-type="alpha" maskUnits="userSpaceOnUse" x="40" y="52" width="12" height="11">
<path d="M46.0717 62.7125C48.9592 62.7125 51.3 60.3788 51.3 57.5C51.3 54.6212 48.9592 52.2875 46.0717 52.2875C43.1841 52.2875 40.8433 54.6212 40.8433 57.5C40.8433 60.3788 43.1841 62.7125 46.0717 62.7125Z" fill="url(#paint14_linear)"/>
</mask>
<g mask="url(#mask7)">
<path d="M46.0717 62.7125C48.9592 62.7125 51.3 60.3788 51.3 57.5C51.3 54.6212 48.9592 52.2875 46.0717 52.2875C43.1841 52.2875 40.8433 54.6212 40.8433 57.5C40.8433 60.3788 43.1841 62.7125 46.0717 62.7125Z" fill="url(#paint15_linear)"/>
</g>
<mask id="mask8" mask-type="alpha" maskUnits="userSpaceOnUse" x="71" y="52" width="11" height="11">
<path d="M76.3524 62.7125C79.24 62.7125 81.5808 60.3788 81.5808 57.5C81.5808 54.6212 79.24 52.2875 76.3524 52.2875C73.4648 52.2875 71.124 54.6212 71.124 57.5C71.124 60.3788 73.4648 62.7125 76.3524 62.7125Z" fill="url(#paint16_linear)"/>
</mask>
<g mask="url(#mask8)">
<path d="M76.3524 62.7125C79.24 62.7125 81.5808 60.3788 81.5808 57.5C81.5808 54.6212 79.24 52.2875 76.3524 52.2875C73.4648 52.2875 71.124 54.6212 71.124 57.5C71.124 60.3788 73.4648 62.7125 76.3524 62.7125Z" fill="url(#paint17_linear)"/>
</g>
<mask id="mask9" mask-type="alpha" maskUnits="userSpaceOnUse" x="10" y="78" width="12" height="11">
<path d="M15.7904 88.8834C18.678 88.8834 21.0188 86.5496 21.0188 83.6709C21.0188 80.7921 18.678 78.4584 15.7904 78.4584C12.9028 78.4584 10.562 80.7921 10.562 83.6709C10.562 86.5496 12.9028 88.8834 15.7904 88.8834Z" fill="url(#paint18_linear)"/>
</mask>
<g mask="url(#mask9)">
<path d="M15.7904 88.8834C18.678 88.8834 21.0188 86.5496 21.0188 83.6709C21.0188 80.7921 18.678 78.4584 15.7904 78.4584C12.9028 78.4584 10.562 80.7921 10.562 83.6709C10.562 86.5496 12.9028 88.8834 15.7904 88.8834Z" fill="url(#paint19_linear)"/>
</g>
<mask id="mask10" mask-type="alpha" maskUnits="userSpaceOnUse" x="40" y="78" width="12" height="11">
<path d="M46.0717 88.8834C48.9592 88.8834 51.3 86.5496 51.3 83.6709C51.3 80.7921 48.9592 78.4584 46.0717 78.4584C43.1841 78.4584 40.8433 80.7921 40.8433 83.6709C40.8433 86.5496 43.1841 88.8834 46.0717 88.8834Z" fill="url(#paint20_linear)"/>
</mask>
<g mask="url(#mask10)">
<path d="M46.0717 88.8834C48.9592 88.8834 51.3 86.5496 51.3 83.6709C51.3 80.7921 48.9592 78.4584 46.0717 78.4584C43.1841 78.4584 40.8433 80.7921 40.8433 83.6709C40.8433 86.5496 43.1841 88.8834 46.0717 88.8834Z" fill="url(#paint21_linear)"/>
</g>
<mask id="mask11" mask-type="alpha" maskUnits="userSpaceOnUse" x="71" y="78" width="11" height="11">
<path d="M76.3524 88.8834C79.24 88.8834 81.5808 86.5496 81.5808 83.6709C81.5808 80.7921 79.24 78.4584 76.3524 78.4584C73.4648 78.4584 71.124 80.7921 71.124 83.6709C71.124 86.5496 73.4648 88.8834 76.3524 88.8834Z" fill="url(#paint22_linear)"/>
</mask>
<g mask="url(#mask11)">
<path d="M76.3524 88.8834C79.24 88.8834 81.5808 86.5496 81.5808 83.6709C81.5808 80.7921 79.24 78.4584 76.3524 78.4584C73.4648 78.4584 71.124 80.7921 71.124 83.6709C71.124 86.5496 73.4648 88.8834 76.3524 88.8834Z" fill="url(#paint23_linear)"/>
</g>
<mask id="mask12" mask-type="alpha" maskUnits="userSpaceOnUse" x="10" y="104" width="12" height="11">
<path d="M15.7904 115C18.678 115 21.0188 112.666 21.0188 109.788C21.0188 106.909 18.678 104.575 15.7904 104.575C12.9028 104.575 10.562 106.909 10.562 109.788C10.562 112.666 12.9028 115 15.7904 115Z" fill="url(#paint24_linear)"/>
</mask>
<g mask="url(#mask12)">
<path d="M15.7904 115C18.678 115 21.0188 112.666 21.0188 109.788C21.0188 106.909 18.678 104.575 15.7904 104.575C12.9028 104.575 10.562 106.909 10.562 109.788C10.562 112.666 12.9028 115 15.7904 115Z" fill="url(#paint25_linear)"/>
</g>
<mask id="mask13" mask-type="alpha" maskUnits="userSpaceOnUse" x="40" y="104" width="12" height="11">
<path d="M46.0717 115C48.9592 115 51.3 112.666 51.3 109.788C51.3 106.909 48.9592 104.575 46.0717 104.575C43.1841 104.575 40.8433 106.909 40.8433 109.788C40.8433 112.666 43.1841 115 46.0717 115Z" fill="url(#paint26_linear)"/>
</mask>
<g mask="url(#mask13)">
<path d="M46.0717 115C48.9592 115 51.3 112.666 51.3 109.788C51.3 106.909 48.9592 104.575 46.0717 104.575C43.1841 104.575 40.8433 106.909 40.8433 109.788C40.8433 112.666 43.1841 115 46.0717 115Z" fill="url(#paint27_linear)"/>
</g>
<mask id="mask14" mask-type="alpha" maskUnits="userSpaceOnUse" x="71" y="104" width="11" height="11">
<path d="M76.3524 115C79.24 115 81.5808 112.666 81.5808 109.788C81.5808 106.909 79.24 104.575 76.3524 104.575C73.4648 104.575 71.124 106.909 71.124 109.788C71.124 112.666 73.4648 115 76.3524 115Z" fill="url(#paint28_linear)"/>
</mask>
<g mask="url(#mask14)">
<path d="M76.3524 115C79.24 115 81.5808 112.666 81.5808 109.788C81.5808 106.909 79.24 104.575 76.3524 104.575C73.4648 104.575 71.124 106.909 71.124 109.788C71.124 112.666 73.4648 115 76.3524 115Z" fill="url(#paint29_linear)"/>
</g>
</g>
<defs>
<linearGradient id="paint0_linear" x1="57.4048" y1="110.551" x2="-13.9968" y2="-71.2526" gradientUnits="userSpaceOnUse">
<stop/>
<stop offset="1" stop-color="white"/>
</linearGradient>
<linearGradient id="paint1_linear" x1="57.4048" y1="110.551" x2="-13.9968" y2="-71.2526" gradientUnits="userSpaceOnUse">
<stop stop-color="#97C3F9"/>
<stop offset="1" stop-color="#93C1F9"/>
</linearGradient>
<linearGradient id="paint2_linear" x1="83.6092" y1="100.259" x2="12.2076" y2="-81.5444" gradientUnits="userSpaceOnUse">
<stop/>
<stop offset="1" stop-color="white"/>
</linearGradient>
<linearGradient id="paint3_linear" x1="83.6092" y1="100.259" x2="12.2076" y2="-81.5444" gradientUnits="userSpaceOnUse">
<stop stop-color="#97C3F9"/>
<stop offset="1" stop-color="#93C1F9"/>
</linearGradient>
<linearGradient id="paint4_linear" x1="109.813" y1="89.9679" x2="38.4116" y2="-91.8359" gradientUnits="userSpaceOnUse">
<stop/>
<stop offset="1" stop-color="white"/>
</linearGradient>
<linearGradient id="paint5_linear" x1="109.813" y1="89.9679" x2="38.4116" y2="-91.8359" gradientUnits="userSpaceOnUse">
<stop stop-color="#97C3F9"/>
<stop offset="1" stop-color="#93C1F9"/>
</linearGradient>
<linearGradient id="paint6_linear" x1="48.4623" y1="114.062" x2="-22.9381" y2="-67.7403" gradientUnits="userSpaceOnUse">
<stop/>
<stop offset="1" stop-color="white"/>
</linearGradient>
<linearGradient id="paint7_linear" x1="48.4623" y1="114.062" x2="-22.9381" y2="-67.7403" gradientUnits="userSpaceOnUse">
<stop stop-color="#97C3F9"/>
<stop offset="1" stop-color="#93C1F9"/>
</linearGradient>
<linearGradient id="paint8_linear" x1="74.6668" y1="103.771" x2="3.2664" y2="-78.0318" gradientUnits="userSpaceOnUse">
<stop/>
<stop offset="1" stop-color="white"/>
</linearGradient>
<linearGradient id="paint9_linear" x1="74.6668" y1="103.771" x2="3.2664" y2="-78.0318" gradientUnits="userSpaceOnUse">
<stop stop-color="#97C3F9"/>
<stop offset="1" stop-color="#93C1F9"/>
</linearGradient>
<linearGradient id="paint10_linear" x1="100.871" y1="93.4794" x2="29.4705" y2="-88.3231" gradientUnits="userSpaceOnUse">
<stop/>
<stop offset="1" stop-color="white"/>
</linearGradient>
<linearGradient id="paint11_linear" x1="100.871" y1="93.4794" x2="29.4705" y2="-88.3231" gradientUnits="userSpaceOnUse">
<stop stop-color="#97C3F9"/>
<stop offset="1" stop-color="#93C1F9"/>
</linearGradient>
<linearGradient id="paint12_linear" x1="39.5199" y1="117.575" x2="-31.8816" y2="-64.2288" gradientUnits="userSpaceOnUse">
<stop/>
<stop offset="1" stop-color="white"/>
</linearGradient>
<linearGradient id="paint13_linear" x1="39.5199" y1="117.575" x2="-31.8816" y2="-64.2288" gradientUnits="userSpaceOnUse">
<stop stop-color="#97C3F9"/>
<stop offset="1" stop-color="#93C1F9"/>
</linearGradient>
<linearGradient id="paint14_linear" x1="65.7244" y1="107.283" x2="-5.67722" y2="-74.5204" gradientUnits="userSpaceOnUse">
<stop/>
<stop offset="1" stop-color="white"/>
</linearGradient>
<linearGradient id="paint15_linear" x1="65.7244" y1="107.283" x2="-5.67722" y2="-74.5204" gradientUnits="userSpaceOnUse">
<stop stop-color="#97C3F9"/>
<stop offset="1" stop-color="#93C1F9"/>
</linearGradient>
<linearGradient id="paint16_linear" x1="91.9285" y1="96.9919" x2="20.5268" y2="-84.8119" gradientUnits="userSpaceOnUse">
<stop/>
<stop offset="1" stop-color="white"/>
</linearGradient>
<linearGradient id="paint17_linear" x1="91.9285" y1="96.9919" x2="20.5268" y2="-84.8119" gradientUnits="userSpaceOnUse">
<stop stop-color="#97C3F9"/>
<stop offset="1" stop-color="#93C1F9"/>
</linearGradient>
<linearGradient id="paint18_linear" x1="30.5775" y1="121.087" x2="-40.824" y2="-60.7168" gradientUnits="userSpaceOnUse">
<stop/>
<stop offset="1" stop-color="white"/>
</linearGradient>
<linearGradient id="paint19_linear" x1="30.5775" y1="121.087" x2="-40.824" y2="-60.7168" gradientUnits="userSpaceOnUse">
<stop stop-color="#97C3F9"/>
<stop offset="1" stop-color="#93C1F9"/>
</linearGradient>
<linearGradient id="paint20_linear" x1="56.7821" y1="110.795" x2="-14.6196" y2="-71.0084" gradientUnits="userSpaceOnUse">
<stop/>
<stop offset="1" stop-color="white"/>
</linearGradient>
<linearGradient id="paint21_linear" x1="56.7821" y1="110.795" x2="-14.6196" y2="-71.0084" gradientUnits="userSpaceOnUse">
<stop stop-color="#97C3F9"/>
<stop offset="1" stop-color="#93C1F9"/>
</linearGradient>
<linearGradient id="paint22_linear" x1="82.9861" y1="100.504" x2="11.5845" y2="-81.3" gradientUnits="userSpaceOnUse">
<stop/>
<stop offset="1" stop-color="white"/>
</linearGradient>
<linearGradient id="paint23_linear" x1="82.9861" y1="100.504" x2="11.5845" y2="-81.3" gradientUnits="userSpaceOnUse">
<stop stop-color="#97C3F9"/>
<stop offset="1" stop-color="#93C1F9"/>
</linearGradient>
<linearGradient id="paint24_linear" x1="21.6352" y1="124.599" x2="-49.7664" y2="-57.2047" gradientUnits="userSpaceOnUse">
<stop/>
<stop offset="1" stop-color="white"/>
</linearGradient>
<linearGradient id="paint25_linear" x1="21.6352" y1="124.599" x2="-49.7664" y2="-57.2047" gradientUnits="userSpaceOnUse">
<stop stop-color="#97C3F9"/>
<stop offset="1" stop-color="#93C1F9"/>
</linearGradient>
<linearGradient id="paint26_linear" x1="47.8397" y1="114.307" x2="-23.5619" y2="-67.4964" gradientUnits="userSpaceOnUse">
<stop/>
<stop offset="1" stop-color="white"/>
</linearGradient>
<linearGradient id="paint27_linear" x1="47.8397" y1="114.307" x2="-23.5619" y2="-67.4964" gradientUnits="userSpaceOnUse">
<stop stop-color="#97C3F9"/>
<stop offset="1" stop-color="#93C1F9"/>
</linearGradient>
<linearGradient id="paint28_linear" x1="74.0438" y1="104.016" x2="2.64213" y2="-77.7879" gradientUnits="userSpaceOnUse">
<stop/>
<stop offset="1" stop-color="white"/>
</linearGradient>
<linearGradient id="paint29_linear" x1="74.0438" y1="104.016" x2="2.64213" y2="-77.7879" gradientUnits="userSpaceOnUse">
<stop stop-color="#97C3F9"/>
<stop offset="1" stop-color="#93C1F9"/>
</linearGradient>
</defs>
</svg>
