<svg width="256" height="54" viewBox="0 0 256 54" fill="none" xmlns="http://www.w3.org/2000/svg">
<g clip-path="url(#clip0)">
<path d="M35.877 21.4113V13.5778H17.9386V20.6853H28.7775V21.4113C28.7782 21.8351 28.6954 22.2548 28.5339 22.6464C28.3725 23.038 28.1355 23.3938 27.8367 23.6934C27.5378 23.993 27.1829 24.2306 26.7923 24.3924C26.4016 24.5543 25.983 24.6373 25.5603 24.6366H10.2873C9.86466 24.6373 9.44602 24.5543 9.0554 24.3924C8.66478 24.2306 8.30986 23.993 8.01099 23.6934C7.71212 23.3938 7.47517 23.038 7.31372 22.6464C7.15227 22.2548 7.0695 21.8351 7.07015 21.4113V10.4464C7.06298 10.0232 7.14283 9.60305 7.30473 9.21215C7.46663 8.82126 7.7071 8.46799 8.01116 8.17435C8.3077 7.87263 8.66249 7.63468 9.05384 7.47503C9.44519 7.31537 9.8649 7.23737 10.2873 7.24578H25.5603C25.9828 7.23737 26.4025 7.31537 26.7938 7.47503C27.1852 7.63468 27.5399 7.87263 27.8365 8.17435C28.1405 8.46799 28.381 8.82126 28.5429 9.21215C28.7048 9.60305 28.7847 10.0232 28.7775 10.4464H35.877C35.884 9.07246 35.6072 7.71198 35.0641 6.45058C34.0073 3.96821 32.036 1.99023 29.5609 0.928578C28.302 0.380447 26.9426 0.102827 25.5702 0.113614H10.2972C8.92673 0.10655 7.56966 0.384028 6.31142 0.928578C3.83849 1.99016 1.87034 3.96858 0.818071 6.45058C0.271133 7.71096 -0.00741899 9.0719 0.000227352 10.4464V21.4113C-0.00911295 22.7939 0.269439 24.1633 0.818071 25.4318C1.86632 27.9188 3.84055 29.898 6.32128 30.9489C7.58296 31.4801 8.93861 31.7506 10.307 31.7441H25.58C26.9471 31.7528 28.3016 31.4822 29.5609 30.9489C32.0357 29.8893 34.0071 27.9129 35.0641 25.4318C35.6088 24.1622 35.8856 22.7934 35.877 21.4113Z" fill="black" fill-opacity="0.87"/>
<path d="M147.07 12.3776H116.947V19.485H147.07V12.3776Z" fill="black" fill-opacity="0.87"/>
<path d="M185.671 15.919C185.681 13.8099 185.257 11.7214 184.424 9.7845C182.809 6.00282 179.797 2.99406 176.019 1.38791C174.083 0.540929 171.993 0.106967 169.88 0.113601H149.971L114.272 0H106.231L93.4217 18.3243L80.6367 0H72.5962V27.3285L57.3282 0H51.1451L33.4087 31.7441H41.5182L54.2489 8.99424L66.9551 31.7441H79.7105V10.9995L90.5494 26.5332H96.3482L107.187 10.9995V31.7441H169.88C171.991 31.7585 174.081 31.333 176.019 30.4945C179.795 28.8734 182.805 25.858 184.424 22.0732C185.257 20.1295 185.682 18.0345 185.671 15.919ZM114.272 24.6366V7.22107H149.774V24.6366H114.272ZM177.403 20.2901C176.636 21.5951 175.551 22.6842 174.25 23.4561C172.929 24.2442 171.417 24.6526 169.88 24.6366H156.859V7.22107H169.88C171.417 7.20357 172.929 7.61025 174.25 8.3966C175.549 9.16625 176.634 10.2517 177.403 11.5527C178.175 12.8779 178.581 14.3847 178.581 15.919C178.581 17.4532 178.175 18.96 177.403 20.2852V20.2901Z" fill="black" fill-opacity="0.87"/>
<path d="M200.939 0L183.203 31.7441H191.312L204.038 8.9893L216.744 31.7441H224.854L207.122 0H200.939Z" fill="black" fill-opacity="0.87"/>
<path d="M247.191 0L238.062 12.3282L228.933 0H220.124L234.529 19.4357V31.7441H241.619V19.4357L256 0H247.191Z" fill="black" fill-opacity="0.87"/>
<path d="M50.8888 54H48.386C48.0221 54.0035 47.6613 53.9312 47.3268 53.7876C46.6605 53.5054 46.1303 52.9738 45.8487 52.3058C45.7024 51.9695 45.6285 51.6059 45.6319 51.239H47.514C47.5133 51.3514 47.5349 51.4628 47.5775 51.5667C47.6201 51.6707 47.6829 51.7652 47.7622 51.8446C47.8414 51.9241 47.9357 51.987 48.0394 52.0297C48.1431 52.0725 48.2542 52.0941 48.3663 52.0935H50.8691C50.9812 52.0941 51.0924 52.0725 51.1961 52.0297C51.2998 51.987 51.394 51.9241 51.4733 51.8446C51.5525 51.7652 51.6153 51.6707 51.6579 51.5667C51.7005 51.4628 51.7221 51.3514 51.7214 51.239V47.4803H49.8099V45.5935H53.6035V51.2587C53.6069 51.6257 53.533 51.9892 53.3867 52.3256C53.1052 52.9935 52.5749 53.5251 51.9087 53.8073C51.5848 53.9385 51.2381 54.004 50.8888 54Z" fill="black" fill-opacity="0.87"/>
<path d="M64.0828 54H60.028C59.6637 54.002 59.303 53.928 58.9688 53.7827C58.3013 53.5022 57.7705 52.97 57.4907 52.3009C57.3459 51.9675 57.2721 51.6075 57.274 51.2439V45.5935H59.156V51.2587C59.1539 51.3712 59.1751 51.4828 59.2184 51.5865C59.2616 51.6903 59.3259 51.7839 59.4073 51.8613C59.4858 51.9425 59.5801 52.0067 59.6843 52.05C59.7885 52.0933 59.9004 52.1148 60.0132 52.1132H64.068C64.2936 52.1119 64.5097 52.0215 64.6692 51.8615C64.8288 51.7016 64.919 51.485 64.9203 51.2587V45.5935H66.8023V51.2587C66.8033 51.6255 66.7295 51.9885 66.5856 52.3256C66.3058 52.9947 65.775 53.5269 65.1075 53.8074C64.7818 53.9381 64.4336 54.0035 64.0828 54Z" fill="black" fill-opacity="0.87"/>
<path d="M77.2767 54H73.2219C72.6991 54.0032 72.1859 53.8584 71.7414 53.5824C71.2969 53.3063 70.9392 52.91 70.7093 52.4392C70.5595 52.1211 70.4821 51.7736 70.4826 51.4218H72.3696C72.3659 51.5591 72.4133 51.6929 72.5026 51.7971C72.5922 51.9003 72.7055 51.98 72.8327 52.0293C72.9564 52.0796 73.0884 52.1064 73.2219 52.1083H77.2767C77.4117 52.1059 77.5452 52.0792 77.6708 52.0293C77.7981 51.98 77.9114 51.9003 78.0009 51.7971C78.0874 51.6912 78.1346 51.5586 78.1346 51.4218C78.1346 51.2849 78.0874 51.1523 78.0009 51.0464C77.9101 50.9446 77.7972 50.8652 77.6708 50.8142C77.5462 50.7605 77.4123 50.732 77.2767 50.7303H73.2219C72.8648 50.7323 72.5105 50.6669 72.1775 50.5376C71.5283 50.2907 70.9989 49.8025 70.6994 49.1744C70.5501 48.8561 70.4727 48.5087 70.4727 48.157C70.4727 47.8052 70.5501 47.4578 70.6994 47.1395C71.0018 46.5136 71.5301 46.0263 72.1775 45.7763C72.5105 45.647 72.8648 45.5816 73.2219 45.5837H77.2767C77.6339 45.5812 77.9883 45.6465 78.3212 45.7763C78.9688 46.0259 79.4972 46.5133 79.7992 47.1395C79.9474 47.458 80.0231 47.8055 80.0209 48.157H78.1389C78.1418 48.0212 78.0944 47.8892 78.0058 47.7865C77.9166 47.6818 77.8033 47.6005 77.6757 47.5494C77.5502 47.4996 77.4167 47.4728 77.2816 47.4704H73.2269C73.0934 47.4723 72.9614 47.4991 72.8376 47.5494C72.7101 47.6005 72.5968 47.6818 72.5076 47.7865C72.4215 47.8916 72.3744 48.0234 72.3744 48.1594C72.3744 48.2954 72.4215 48.4272 72.5076 48.5323C72.5983 48.6341 72.7113 48.7135 72.8376 48.7645C72.9607 48.817 73.0931 48.8439 73.2269 48.8435H77.2816C77.6396 48.8419 77.9945 48.9107 78.3261 49.046C78.9744 49.2918 79.5036 49.7781 79.8041 50.4043C79.9502 50.7235 80.0258 51.0706 80.0258 51.4218C80.0258 51.773 79.9502 52.12 79.8041 52.4392C79.5724 52.9097 79.2136 53.3054 78.7685 53.5814C78.3234 53.8573 77.8099 54.0024 77.2865 54H77.2767Z" fill="black" fill-opacity="0.87"/>
<path d="M88.6232 54H86.7412V47.4605H83.6816V45.5688H91.6827V47.4605H88.6232V54Z" fill="black" fill-opacity="0.87"/>
<path d="M107.655 54H103.6C103.236 54.0031 102.876 53.9308 102.541 53.7876C101.875 53.5054 101.345 52.9738 101.063 52.3059C100.919 51.9688 100.845 51.6057 100.846 51.239V48.3249C100.845 47.9598 100.919 47.5983 101.063 47.263C101.341 46.5929 101.873 46.0603 102.541 45.7812C102.875 45.6341 103.236 45.56 103.6 45.5639H107.655C108.021 45.56 108.384 45.6341 108.719 45.7812C109.217 45.987 109.642 46.3373 109.939 46.7871C110.237 47.2368 110.394 47.7655 110.389 48.3051H108.507C108.509 48.1932 108.488 48.082 108.446 47.9784C108.404 47.8748 108.341 47.781 108.261 47.7026C108.182 47.623 108.087 47.5601 107.983 47.5177C107.879 47.4753 107.767 47.4542 107.655 47.4556H103.6C103.489 47.4537 103.378 47.4746 103.274 47.5171C103.171 47.5596 103.077 47.6227 102.999 47.7026C102.918 47.78 102.854 47.8736 102.81 47.9773C102.767 48.0811 102.746 48.1927 102.748 48.3051V51.2192C102.749 51.4455 102.839 51.6621 102.999 51.822C103.159 51.982 103.375 52.0724 103.6 52.0737H107.655C107.767 52.0744 107.878 52.0527 107.982 52.01C108.086 51.9673 108.18 51.9044 108.259 51.8249C108.338 51.7454 108.401 51.651 108.444 51.547C108.486 51.4431 108.508 51.3316 108.507 51.2192H110.389C110.391 51.5851 110.321 51.9476 110.182 52.2861C109.899 52.9526 109.369 53.4834 108.704 53.7679C108.374 53.9159 108.017 53.9949 107.655 54Z" fill="black" fill-opacity="0.87"/>
<path d="M123.588 54H121.692V50.7303H115.947V54H114.06V45.5688H115.947V48.8435H121.692V45.5688H123.574L123.588 54Z" fill="black" fill-opacity="0.87"/>
<path d="M137.713 54H135.56L132.191 47.9594L128.806 54H126.653L131.363 45.5688H133.023L137.713 54Z" fill="black" fill-opacity="0.87"/>
<path d="M147.468 54H140.778V45.6034H142.665V52.133H147.468V54Z" fill="black" fill-opacity="0.87"/>
<path d="M157.82 54H151.134V45.6034H153.016V52.133H157.82V54Z" fill="black" fill-opacity="0.87"/>
<path d="M171.019 47.4902H161.49V45.6034H171.019V47.4902ZM171.019 54H161.49V52.1132H171.019V54ZM170.25 50.7451H162.254V48.8583H170.25V50.7451Z" fill="black" fill-opacity="0.87"/>
<path d="M184.212 54H181.931L176.571 47.9594V54H174.689V45.5688H176.96L182.33 51.6144V45.5688H184.212V54Z" fill="black" fill-opacity="0.87"/>
<path d="M194.667 54H190.617C190.253 54.0031 189.893 53.9308 189.558 53.7876C188.889 53.5094 188.358 52.9765 188.08 52.3059C187.936 51.9688 187.862 51.6057 187.863 51.239V48.3249C187.862 47.9598 187.936 47.5983 188.08 47.263C188.358 46.5923 188.889 46.0594 189.558 45.7812C189.892 45.634 190.253 45.56 190.617 45.5639H194.667C195.032 45.559 195.393 45.6332 195.726 45.7812C196.395 46.0594 196.927 46.5923 197.204 47.263C197.348 47.5983 197.422 47.9598 197.421 48.3249H195.539C195.541 48.2125 195.52 48.1008 195.477 47.9971C195.434 47.8933 195.369 47.7998 195.288 47.7223C195.208 47.6427 195.114 47.5799 195.01 47.5375C194.906 47.495 194.794 47.4739 194.682 47.4753H190.617C190.505 47.4739 190.394 47.495 190.289 47.5375C190.185 47.5799 190.091 47.6427 190.011 47.7223C189.93 47.7998 189.866 47.8933 189.822 47.9971C189.779 48.1008 189.758 48.2125 189.76 48.3249V51.239C189.758 51.3514 189.779 51.4631 189.822 51.5668C189.866 51.6705 189.93 51.7641 190.011 51.8416C190.09 51.9228 190.184 51.987 190.288 52.0303C190.393 52.0736 190.505 52.0951 190.617 52.0935H194.667C194.78 52.0951 194.892 52.0736 194.996 52.0303C195.1 51.987 195.195 51.9228 195.273 51.8416C195.354 51.7641 195.419 51.6705 195.462 51.5668C195.505 51.4631 195.527 51.3514 195.524 51.239V51.0414H192.637V49.1744H197.402V51.2588C197.403 51.6255 197.329 51.9885 197.185 52.3256C196.904 52.9942 196.374 53.526 195.707 53.8074C195.377 53.9421 195.023 54.0077 194.667 54Z" fill="black" fill-opacity="0.87"/>
<path d="M210.605 47.4902H201.071V45.6034H210.605V47.4902ZM210.605 54H201.071V52.1132H210.605V54ZM209.836 50.7451H201.835V48.8583H209.836V50.7451Z" fill="black" fill-opacity="0.87"/>
</g>
<defs>
<clipPath id="clip0">
<rect width="256" height="54" fill="white"/>
</clipPath>
</defs>
</svg>
